HIERARCHY
ROOT root
{
	OFFSET	0	13.1	24.9
	CHANNELS 6  Xposition Yposition Zposition Xrotation Yrotation Zrotation
	JOINT spine_1
	{
		OFFSET	0	9.99999	0
		CHANNELS 3  Xrotation Yrotation Zrotation
		JOINT spine_2
		{
			OFFSET	0	112	-10
			CHANNELS 3  Xrotation Yrotation Zrotation
			JOINT spine_3
			{
				OFFSET	0	206.5	19.3
				CHANNELS 3  Xrotation Yrotation Zrotation
				JOINT spine_4
				{
					OFFSET	0	110.4	14.6
					CHANNELS 3  Xrotation Yrotation Zrotation
					JOINT neck_1
					{
						OFFSET	0	71.8	-50.3
						CHANNELS 3  Xrotation Yrotation Zrotation
						JOINT neck_2
						{
							OFFSET	0	86.2	-25.8
							CHANNELS 3  Xrotation Yrotation Zrotation
							JOINT head_ee
							{
								OFFSET	0	179.8	-8.7
								CHANNELS 3  Xrotation Yrotation Zrotation
								End Site
								{
									OFFSET	1	0	0
								}
							}
						}
					}
					JOINT left_clavicle
					{
						OFFSET	-43.2	22.4	-70.8
						CHANNELS 3  Xrotation Yrotation Zrotation
						JOINT left_shoulder
						{
							OFFSET	-93.9	-5.79999	48.7
							CHANNELS 3  Xrotation Yrotation Zrotation
							JOINT left_elbow
							{
								OFFSET	-291.4	-30.8	15.2
								CHANNELS 3  Xrotation Yrotation Zrotation
								JOINT left_lowarm_twist
								{
									OFFSET	-110.7	-3.89999	13.6
									CHANNELS 3  Xrotation Yrotation Zrotation
									JOINT left_hand
									{
										OFFSET	-110.7	-3.89999	13.6
										CHANNELS 3  Xrotation Yrotation Zrotation
										JOINT left_ee
										{
											OFFSET	-80.8	-5.10001	12.1
											CHANNELS 3  Xrotation Yrotation Zrotation
											End Site
											{
												OFFSET	1	0	0
											}
										}
									}
								}
							}
						}
					}
					JOINT right_clavicle
					{
						OFFSET	43.2	22.4	-70.8
						CHANNELS 3  Xrotation Yrotation Zrotation
						JOINT right_shoulder
						{
							OFFSET	93.9	-5.79999	48.7
							CHANNELS 3  Xrotation Yrotation Zrotation
							JOINT right_elbow
							{
								OFFSET	291.4	-30.8	15.2
								CHANNELS 3  Xrotation Yrotation Zrotation
								JOINT right_lowarm_twist
								{
									OFFSET	110.7	-3.89999	13.6
									CHANNELS 3  Xrotation Yrotation Zrotation
									JOINT right_hand
									{
										OFFSET	110.7	-3.89999	13.6
										CHANNELS 3  Xrotation Yrotation Zrotation
										JOINT right_ee
										{
											OFFSET	80.8	-5.10001	12.1
											CHANNELS 3  Xrotation Yrotation Zrotation
											End Site
											{
												OFFSET	1	0	0
											}
										}
									}
								}
							}
						}
					}
				}
			}
		}
	}
	JOINT left_hip
	{
		OFFSET	-82.8	-127.5	0.300001
		CHANNELS 3  Xrotation Yrotation Zrotation
		JOINT left_knee
		{
			OFFSET	-28.2	-396.7	2.2
			CHANNELS 3  Xrotation Yrotation Zrotation
			JOINT left_ankle
			{
				OFFSET	-11.7	-411.3	35.4
				CHANNELS 3  Xrotation Yrotation Zrotation
				JOINT left_toes
				{
					OFFSET	0	-60	-88.6
					CHANNELS 3  Xrotation Yrotation Zrotation
					JOINT left_foot_ee
					{
						OFFSET	-22.5	-16.5	-42.2
						CHANNELS 3  Xrotation Yrotation Zrotation
						End Site
						{
							OFFSET	1	0	0
						}
					}
				}
			}
		}
	}
	JOINT right_hip
	{
		OFFSET	82.8	-127.5	0.300001
		CHANNELS 3  Xrotation Yrotation Zrotation
		JOINT right_knee
		{
			OFFSET	28.2	-396.7	2.2
			CHANNELS 3  Xrotation Yrotation Zrotation
			JOINT right_ankle
			{
				OFFSET	11.7	-411.3	35.4
				CHANNELS 3  Xrotation Yrotation Zrotation
				JOINT right_toes
				{
					OFFSET	0	-60	-88.6
					CHANNELS 3  Xrotation Yrotation Zrotation
					JOINT right_foot_ee
					{
						OFFSET	22.5	-16.5	-42.2
						CHANNELS 3  Xrotation Yrotation Zrotation
						End Site
						{
							OFFSET	1	0	0
						}
					}
				}
			}
		}
	}
}
MOTION
Frames: 15
Frame Time: 0.02
1271.78 663.667 -516.152 163.226 -86.3024 166.62 0.00137595 -0.226697 -0.544126 0.00152029 -0.191614 -0.557448 0.00350515 -0.070213 -0.585264 0.00306351 -0.161762 -0.566831 -10.5009 4.18427 -4.66918 -10.4777 11.0075 -3.46517 -0.0 0.0 -0.0 8.39702 18.2261 15.1278 23.4158 -37.613 68.9346 1.56295 -37.7458 0.534321 -4.07377 -0.161227 0.495028 -1.26493 11.4197 -3.321 -0.0 0.0 -0.0 8.47654 7.16067 -16.5887 -22.9747 -21.7824 -74.8079 0.218413 6.17528 -0.0117817 -71.5261 6.74091 -5.31334 -3.8432 -19.9498 14.9924 0.0 0.0 0.0 -10.2307 31.2565 -5.78625 -4.62298 0.162545 0.690678 32.4765 -21.181 -4.65218 -1.48449 0.0 0.0 -0.0 0.0 -0.0 29.5968 -4.12086 -5.81877 -2.96747 -0.110756 -0.441892 -19.8348 4.42 -3.0617 1.48297 -0.0 -0.0 0.0 0.0 0.0 
1288.53 663.42 -510.697 155.556 -87.5985 159.08 -0.149149 -0.240013 -0.62116 -0.148957 -0.200001 -0.635173 -0.146577 -0.0603467 -0.663176 -0.147153 -0.164323 -0.645324 -9.31739 3.81406 -4.83379 -9.26939 10.4762 -3.83754 -0.0 0.0 -0.0 8.41033 19.0783 15.0501 22.7966 -38.9272 69.1164 1.5428 -37.3866 0.522036 -3.99345 -0.157709 0.48538 -1.18349 9.40739 -3.7071 -0.0 0.0 -0.0 8.65049 6.66895 -16.9619 -22.3178 -21.9217 -74.6614 0.21722 6.14179 -0.0116535 -71.4043 6.72535 -5.31265 -3.99354 -19.1186 16.4451 0.0 0.0 0.0 -10.4465 30.6481 -6.52717 -4.5765 0.161189 0.683673 31.4812 -21.0725 -4.53731 -1.76246 0.0 0.0 -0.0 0.0 -0.0 29.025 -3.09684 -6.02688 -2.87044 -0.107498 -0.427358 -20.2089 5.76198 -3.13776 0.920634 -0.0 -0.0 0.0 0.0 0.0 
1313.45 662.286 -509.41 158.295 -87.1672 160.859 -0.020411 -0.195363 -0.618812 -0.0202114 -0.155592 -0.629989 -0.0183587 -0.019504 -0.648624 -0.0189253 -0.121695 -0.637404 -8.73448 3.89965 -5.25217 -8.6669 10.9532 -4.29019 -0.0 0.0 -0.0 7.88954 20.4018 14.0838 21.4487 -38.9264 70.205 1.50306 -36.668 0.498105 -3.57557 -0.139623 0.435111 -1.17094 9.39157 -3.63339 -0.0 0.0 -0.0 8.96097 5.24487 -17.6205 -21.7133 -20.4359 -72.5126 0.215529 6.09433 -0.0114733 -71.6202 6.75294 -5.31386 -3.77983 -16.9922 16.3935 0.0 0.0 0.0 -9.74594 29.8166 -6.70496 -9.62329 0.275027 1.44953 33.1302 -20.939 -4.71343 -1.40311 0.0 0.0 -0.0 0.0 -0.0 27.6895 -1.90377 -5.45768 -2.46403 -0.0935822 -0.366538 -19.8322 10.599 -3.15897 1.36153 -0.0 -0.0 0.0 0.0 0.0 
1335.62 664.573 -502.968 126.653 -87.9438 129.527 -0.15209 -0.167015 -0.8671 -0.151679 -0.111502 -0.875969 -0.149722 0.0773966 -0.879638 -0.150796 -0.0624917 -0.880823 -8.36207 4.41432 -4.45331 -8.31355 11.3724 -3.4211 -0.0 0.0 -0.0 7.53776 20.8897 13.4941 19.5778 -40.1561 70.6337 1.51662 -36.9147 0.506225 -3.05426 -0.117577 0.372221 -1.04989 9.30322 -2.89363 -0.0 0.0 -0.0 9.34112 4.03774 -18.4095 -21.1076 -19.688 -71.3384 0.233975 6.6115 -0.0135145 -71.3481 6.71817 -5.31232 -3.68154 -15.7884 16.4814 0.0 0.0 0.0 -7.7439 29.4101 -9.06769 -16.0136 0.321806 2.4284 32.3159 -17.5575 -4.49932 -1.10592 0.0 0.0 -0.0 0.0 -0.0 26.7688 -1.2713 -4.91748 -6.75982 -0.21872 -1.01378 -18.8766 14.0029 -3.07525 3.63024 -0.0 -0.0 0.0 0.0 0.0 
1354.98 668.046 -498.787 121.999 -87.4842 124.431 -0.2511 -0.0977547 -0.709021 -0.250821 -0.0524409 -0.713804 -0.250005 0.101851 -0.708444 -0.250706 -0.0113096 -0.715638 -7.75421 3.79281 -4.01011 -7.70693 9.91854 -3.17718 -0.0 0.0 -0.0 6.82138 19.8251 12.4955 17.46 -40.4021 70.2601 1.45618 -35.8025 0.470391 -2.92022 -0.112001 0.356017 -1.21108 9.02586 -4.05665 -0.0 0.0 -0.0 9.67105 3.1641 -19.0855 -20.2668 -18.5212 -70.259 0.270943 7.64456 -0.0181019 -72.4477 6.85868 -5.31751 -3.67436 -14.3115 17.3077 0.0 0.0 0.0 -7.88773 27.6369 -8.9254 -19.2291 0.304015 2.92137 30.5587 -12.3792 -4.16015 0.0425955 -0.0 -0.0 -0.0 0.0 -0.0 25.6322 0.291188 -4.49803 -9.38822 -0.271226 -1.41366 -13.8182 16.9599 -2.29615 4.14091 -0.0 -0.0 0.0 0.0 0.0 
1378.93 673.285 -494.875 98.8537 -87.4367 100.416 -0.466603 0.181838 -0.789416 -0.466286 0.231701 -0.776247 -0.469354 0.395505 -0.706983 -0.469943 0.27889 -0.76057 -8.32383 4.83984 -1.5852 -8.3273 10.1579 -0.487798 -0.0 0.0 -0.0 6.81436 19.2409 12.529 15.1964 -39.9299 70.1098 1.40573 -34.8497 0.441217 -2.80348 -0.107176 0.341896 -1.29996 9.22554 -4.53993 -0.0 0.0 -0.0 9.93726 2.73683 -19.6332 -19.2078 -17.594 -69.4208 0.254101 7.17451 -0.01593 -72.9215 6.91925 -5.3189 -3.60578 -13.3297 17.4305 0.0 0.0 0.0 -7.6074 26.4234 -9.18232 -22.6964 0.253875 3.45097 26.4617 -7.80162 -3.6097 -0.0906511 0.0 0.0 -0.0 0.0 -0.0 24.4018 0.947317 -3.38016 -12.8313 -0.312162 -1.94031 -8.90194 17.676 -1.47882 7.15429 -0.0 -0.0 0.0 0.0 0.0 
1394.65 680.245 -483.522 90.0001 -86.9505 90.0001 -0.727218 0.0544908 -0.461112 -0.727103 0.0837218 -0.456711 -0.727723 0.183279 -0.426618 -0.727959 0.113603 -0.450209 -8.35424 3.99199 -3.03071 -8.33509 9.58676 -2.10593 -0.0 0.0 -0.0 6.07581 19.5188 11.3733 12.7342 -40.4604 69.0872 1.34169 -33.6076 0.405194 -2.45117 -0.0927884 0.29922 -1.2332 8.9282 -4.24351 -0.0 0.0 -0.0 10.5023 2.31152 -20.8102 -16.6963 -16.0629 -69.1243 0.345706 9.718 -0.0293884 -73.4337 6.98472 -5.31985 -3.6586 -12.7073 18.144 0.0 0.0 0.0 -6.23763 25.9055 -9.9188 -25.286 0.195573 3.84405 22.2761 -4.50504 -3.06937 0.828906 -0.0 -0.0 -0.0 0.0 -0.0 23.939 1.49055 -3.35066 -15.8515 -0.32197 -2.40352 -6.04348 19.9919 -1.02006 6.57907 -0.0 -0.0 0.0 0.0 0.0 
1408.06 686.509 -479.175 90.0 -86.796 90.0 -0.841024 0.121728 -0.292239 -0.840988 0.140077 -0.283901 -0.841683 0.200243 -0.245203 -0.841732 0.159004 -0.27375 -9.46528 4.59912 -2.012 -9.47644 10.0139 -0.862561 -0.0 0.0 -0.0 5.75155 19.1793 10.8935 10.8197 -40.5494 68.636 1.24826 -31.7293 0.354756 -2.31316 -0.0872242 0.282478 -1.22327 8.90642 -4.18922 -0.0 0.0 -0.0 10.9182 1.86338 -21.672 -14.677 -14.9643 -68.5917 0.388244 10.8867 -0.0369963 -74.7122 7.1481 -5.31963 -3.72841 -11.0492 19.5817 0.0 0.0 0.0 -4.8618 25.3604 -9.94358 -27.0628 0.145315 4.11208 20.8634 1.56415 -2.85014 0.831551 -0.0 -0.0 -0.0 0.0 -0.0 23.0856 1.91823 -3.48676 -17.0059 -0.319268 -2.58062 -5.20224 19.2489 -0.870479 7.59649 -0.0 -0.0 0.0 0.0 0.0 
1419.63 687.724 -476.914 90.0 -86.5445 90.0 -1.00123 0.208059 -0.121709 -1.00125 0.215382 -0.108223 -1.00168 0.23434 -0.0564487 -1.00162 0.222484 -0.09275 -9.95321 4.15833 -1.88081 -9.96643 9.09744 -0.801422 -0.0 0.0 -0.0 5.27383 18.5384 10.1822 9.20719 -40.6049 68.1658 1.17093 -30.1147 0.315017 -2.41548 -0.0913455 0.294891 -1.18633 8.84117 -3.97995 -0.0 0.0 -0.0 11.1059 1.65956 -22.0608 -12.5129 -13.864 -68.6591 0.436995 12.2148 -0.0467587 -75.4692 7.2448 -5.31777 -3.77075 -10.6696 20.0923 0.0 0.0 0.0 -3.55874 23.9342 -10.1342 -29.7842 0.0522703 4.51934 18.2525 4.90074 -2.51391 1.4065 -0.0 -0.0 -0.0 0.0 -0.0 22.3178 2.14572 -3.5555 -18.0015 -0.314072 -2.73329 -2.36499 19.7069 -0.394858 9.19652 -0.0 -0.0 0.0 0.0 0.0 
1430.93 689.723 -474.234 90.0 -86.0813 90.0 -1.12925 0.297567 0.0168388 -1.1293 0.295892 0.0357398 -1.12914 0.279803 0.102664 -1.12904 0.292506 0.0571856 -10.0681 4.44257 -0.476727 -10.091 8.6862 0.647919 -0.0 0.0 -0.0 4.99182 18.3702 9.75086 7.54632 -40.5144 67.9776 1.11484 -28.9091 0.287382 -2.49328 -0.0944943 0.304325 -1.15384 8.82416 -3.77769 -0.0 0.0 -0.0 10.9591 1.96301 -21.7639 -10.3157 -12.6432 -68.7339 0.459322 12.8187 -0.0515975 -76.0638 7.32072 -5.3154 -3.68971 -9.87387 19.9989 0.0 0.0 0.0 -2.85233 23.0263 -9.82479 -32.1288 -0.0433416 4.86641 19.5604 9.44421 -2.67817 1.03245 -0.0 -0.0 -0.0 0.0 -0.0 21.4666 2.41465 -3.7388 -19.497 -0.301284 -2.96238 -0.382626 17.6541 -0.0624007 9.67454 -0.0 -0.0 0.0 0.0 0.0 
1442.3 694.505 -467.776 90.0 -86.143 90.0 -1.20087 0.335491 0.170304 -1.20091 0.323974 0.191307 -1.19982 0.27113 0.260857 -1.19978 0.308924 0.214763 -11.5959 4.99399 -1.28073 -11.6419 10.2882 0.142053 -0.0 0.0 -0.0 4.79497 18.0861 9.45152 5.23787 -40.3951 66.9989 0.919504 -24.4887 0.199553 -2.55656 -0.0970649 0.311995 -1.29846 11.9143 -3.30982 -0.0 0.0 -0.0 11.0734 2.78303 -22.0478 -5.89528 -11.4795 -67.8683 0.512712 14.251 -0.0640937 -76.7711 7.41098 -5.31156 -3.60533 -8.7539 20.0586 0.0 0.0 0.0 -1.7913 23.3677 -10.0128 -32.0931 -0.0417816 4.86116 18.9867 13.5487 -2.62028 1.2401 -0.0 -0.0 -0.0 0.0 -0.0 20.8625 2.95284 -4.23787 -19.9808 -0.295868 -3.03643 0.39264 17.8352 0.0639974 11.7234 -0.0 -0.0 0.0 0.0 0.0 
1451.37 694.611 -464.058 90.0 -86.3249 90.0 -1.08666 0.242299 0.269705 -1.08665 0.224646 0.284577 -1.08548 0.153626 0.328403 -1.08558 0.203563 0.30002 -12.4001 5.30637 -1.47471 -12.4633 11.0131 0.120783 -0.0 0.0 -0.0 4.31275 17.8225 8.70611 4.02225 -40.2544 67.5429 0.829343 -22.3343 0.163723 -2.57849 -0.0979573 0.314652 -1.13085 10.4229 -2.91417 -0.0 0.0 -0.0 11.0903 2.95361 -22.092 -1.86159 -10.4053 -67.1783 0.610928 16.8378 -0.090421 -77.2529 7.47241 -5.30829 -3.83594 -9.2488 21.3725 0.0 0.0 0.0 -0.227695 21.1362 -10.1948 -33.8534 -0.122712 5.11912 20.9005 13.9271 -2.86228 1.43704 -0.0 -0.0 -0.0 0.0 -0.0 19.5525 3.72918 -4.24058 -19.3555 -0.30275 -2.94072 2.96618 17.9486 0.480274 11.8452 -0.0 -0.0 0.0 0.0 0.0 
1459.18 692.405 -462.028 90.0 -86.2284 90.0 -1.14596 0.185563 0.352087 -1.14591 0.162783 0.363181 -1.1448 0.075023 0.390858 -1.14498 0.13581 0.374105 -12.8266 5.73491 -1.03179 -12.9067 11.5523 0.714531 -0.0 0.0 -0.0 4.03625 17.821 8.27763 2.92803 -40.0402 67.7905 0.729354 -19.8648 0.127719 -2.63409 -0.100226 0.321389 -1.21314 12.2642 -2.61183 -0.0 0.0 -0.0 10.8363 2.81905 -21.5421 0.698802 -9.43739 -67.5076 0.718332 19.5876 -0.123999 -78.3217 7.60855 -5.29919 -3.89682 -9.29375 21.7703 0.0 0.0 0.0 1.8137 20.0767 -10.193 -35.6448 -0.213187 5.379 24.7589 16.0719 -3.3474 1.08964 -0.0 -0.0 -0.0 0.0 -0.0 18.5519 4.51208 -4.41631 -18.3489 -0.311635 -2.78654 3.64762 17.7715 0.588448 12.6663 -0.0 -0.0 0.0 0.0 0.0 
1477.41 693.161 -460.969 90.0 -85.8937 90.0 -1.20688 0.0143423 0.488499 -1.20675 -0.0167709 0.488421 -1.2068 -0.12901 0.471374 -1.20711 -0.0529474 0.485833 -13.0231 5.84284 -1.09836 -13.1096 11.8024 0.704116 -0.0 0.0 -0.0 3.89173 17.8603 8.05437 0.951122 -39.7424 67.8881 0.599816 -16.5485 0.087229 -3.07968 -0.118639 0.375291 -1.33965 14.4642 -2.41067 -0.0 0.0 -0.0 10.4844 1.82854 -20.7515 2.74037 -7.22994 -69.6479 1.01531 26.6998 -0.240949 -79.5331 7.76257 -5.28579 -4.21846 -9.99552 23.6059 0.0 0.0 0.0 3.12735 18.9318 -10.0958 -37.1753 -0.29691 5.59876 28.1357 17.4577 -3.75566 1.12305 -0.0 -0.0 -0.0 0.0 -0.0 16.5759 5.13868 -4.51237 -18.4007 -0.311243 -2.79448 7.34254 15.5066 1.14852 13.571 -0.0 -0.0 0.0 0.0 0.0 
1487.19 693.767 -459.207 89.8313 -85.4007 88.5442 -1.24396 -0.00719967 0.643897 -1.24373 -0.0481571 0.642134 -1.24412 -0.195419 0.61357 -1.24463 -0.096067 0.636731 -13.526 6.07936 -0.990776 -13.6279 12.1937 0.933562 -0.0 0.0 -0.0 3.84704 17.3211 7.97938 0.187747 -39.5985 68.5747 0.448725 -12.5324 0.0492722 -3.05078 -0.117432 0.3718 -1.34257 16.2299 -1.62708 -0.0 0.0 -0.0 10.0855 0.983935 -19.8779 3.61891 -6.15754 -70.6679 1.16715 30.0342 -0.31312 -80.0396 7.82686 -5.27921 -4.34082 -9.933 24.5117 0.0 0.0 0.0 5.04402 17.4969 -9.99519 -37.4054 -0.310006 5.63161 29.8847 20.1537 -3.99372 1.34962 -0.0 -0.0 -0.0 0.0 -0.0 14.2464 5.50992 -4.38531 -17.0516 -0.319087 -2.58763 10.265 13.701 1.56734 14.2636 -0.0 -0.0 0.0 0.0 0.0 
